# xmcd
#
# Track frame offsets: 
#        150
#        30738
#        87203
#        89683
#        96720
#        100118
#        167677
#        193446
#        211563
#        228853
#        249629
#
# Disc length: 3777 seconds
#
# Revision: 0
# Processed by: cddbd v1.5.2PL0 Copyright (c) Steve Scherf et al.
# Submitted via: ExactAudioCopy v0.95b3
#
DISCID=900ebf0b
DTITLE=Jimi Hendrix  - Studio Sessions Vol.1 (Voodoo Chile Records  Bo
DTITLE=x-Set) - Disc 4
DYEAR=1900
DGENRE=
TTITLE0=Jam 2 (Js7)
TTITLE1=Jam 3 (Js8)
TTITLE2=Sunshine Of Your Love
TTITLE3=Jam 4 (Js9)
TTITLE4=Sunshine Of Your Love
TTITLE5=Jam 5 (Js10)
TTITLE6=Jam 6 (Js11)
TTITLE7=Jam 7 (Js12)
TTITLE8=Izabella (Js2)
TTITLE9=Calling All Devil's Children
TTITLE10=Calling All Devil's Children
EXTD=
EXTT0=
EXTT1=
EXTT2=
EXTT3=
EXTT4=
EXTT5=
EXTT6=
EXTT7=
EXTT8=
EXTT9=
EXTT10=
PLAYORDER=
